<svg width="33" height="43" viewBox="0 0 33 43" fill="none" xmlns="http://www.w3.org/2000/svg">
<path d="M7.74334 7.7431V27.9431M7.74334 7.7431H17.8433C19.6291 7.7431 21.3418 8.4525 22.6045 9.71525C23.8673 10.978 24.5767 12.6906 24.5767 14.4764C24.5767 16.2622 23.8673 17.9749 22.6045 19.2376C21.3418 20.5004 19.6291 21.2098 17.8433 21.2098H7.74334V7.7431ZM7.74334 27.9431C5.95755 27.9431 4.2449 28.6525 2.98216 29.9152C1.71941 31.178 1.01001 32.8906 1.01001 34.6764M7.74334 27.9431H21.21C23.8887 27.9431 26.4577 26.5243 28.3518 23.9988C30.2459 21.4733 31.31 18.048 31.31 14.4764C31.31 10.9049 30.2459 7.47955 28.3518 4.95406C26.4577 2.42857 23.8887 1.00977 21.21 1.00977H1.01001V34.6764M1.01001 34.6764C1.01001 36.4622 1.71941 38.1749 2.98216 39.4376C4.2449 40.7004 5.95755 41.4098 7.74334 41.4098V31.3098" stroke="#3CB179" stroke-width="2.02" stroke-linecap="square" stroke-linejoin="round"/>
</svg>
