<svg width="24" height="24" viewBox="0 0 24 24" fill="none" xmlns="http://www.w3.org/2000/svg">
<path d="M12.0001 3.5999C13.3256 3.5999 14.4001 4.67442 14.4001 5.9999C14.4001 7.32539 13.3256 8.3999 12.0001 8.3999C10.6746 8.3999 9.6001 7.32539 9.6001 5.9999C9.6001 4.67442 10.6746 3.5999 12.0001 3.5999ZM12.6001 9.55013C14.3027 9.26448 15.6001 7.7837 15.6001 5.9999C15.6001 4.01168 13.9883 2.3999 12.0001 2.3999C10.0119 2.3999 8.4001 4.01168 8.4001 5.9999C8.4001 7.7837 9.69747 9.26448 11.4001 9.55013V13.1999H9.0001C8.00599 13.1999 7.2001 14.0058 7.2001 14.9999V15.5999H6.0001C4.67461 15.5999 3.6001 16.6744 3.6001 17.9999V20.9999C3.6001 21.3313 3.86873 21.5999 4.2001 21.5999H19.8001C20.1315 21.5999 20.4001 21.3313 20.4001 20.9999V17.9999C20.4001 16.6744 19.3256 15.5999 18.0001 15.5999H16.8001V14.9999C16.8001 14.0058 15.9942 13.1999 15.0001 13.1999H12.6001V9.55013ZM9.0001 14.3999H15.0001C15.3315 14.3999 15.6001 14.6685 15.6001 14.9999V15.5999H8.4001V14.9999C8.4001 14.6685 8.66873 14.3999 9.0001 14.3999ZM6.0001 16.7999H18.0001C18.6628 16.7999 19.2001 17.3372 19.2001 17.9999V20.3999H4.8001V17.9999C4.8001 17.3372 5.33736 16.7999 6.0001 16.7999Z" fill="#8F8F8F"/>
</svg>
