<svg width="16" height="16" viewBox="0 0 16 16" fill="none" xmlns="http://www.w3.org/2000/svg">
<path d="M9.33325 2.66671V9.69337C9.84163 9.98689 10.239 10.4399 10.4636 10.9823C10.6882 11.5246 10.7277 12.1259 10.5757 12.693C10.4238 13.26 10.089 13.761 9.62328 14.1184C9.15757 14.4757 8.58694 14.6694 7.99992 14.6694C7.4129 14.6694 6.84227 14.4757 6.37656 14.1184C5.91084 13.761 5.57605 13.26 5.42412 12.693C5.27218 12.1259 5.3116 11.5246 5.53624 10.9823C5.76089 10.4399 6.15821 9.98689 6.66659 9.69337V2.66671C6.66659 2.31309 6.80706 1.97395 7.05711 1.7239C7.30716 1.47385 7.6463 1.33337 7.99992 1.33337C8.35354 1.33337 8.69268 1.47385 8.94273 1.7239C9.19278 1.97395 9.33325 2.31309 9.33325 2.66671Z" stroke="#D18700" stroke-width="1.33333" stroke-linecap="round" stroke-linejoin="round"/>
</svg>
