<svg width="16" height="16" viewBox="0 0 16 16" fill="none" xmlns="http://www.w3.org/2000/svg">
<path d="M9.33331 2.66671V9.69337C9.84169 9.98689 10.239 10.4399 10.4637 10.9823C10.6883 11.5246 10.7277 12.1259 10.5758 12.693C10.4239 13.26 10.0891 13.761 9.62334 14.1184C9.15763 14.4757 8.58701 14.6694 7.99998 14.6694C7.41296 14.6694 6.84234 14.4757 6.37662 14.1184C5.9109 13.761 5.57611 13.26 5.42418 12.693C5.27225 12.1259 5.31166 11.5246 5.5363 10.9823C5.76095 10.4399 6.15827 9.98689 6.66665 9.69337V2.66671C6.66665 2.31309 6.80712 1.97395 7.05717 1.7239C7.30722 1.47385 7.64636 1.33337 7.99998 1.33337C8.3536 1.33337 8.69274 1.47385 8.94279 1.7239C9.19284 1.97395 9.33331 2.31309 9.33331 2.66671Z" stroke="#FF383C" stroke-width="1.33333" stroke-linecap="round" stroke-linejoin="round"/>
</svg>
